#!OML:ASF E:\I on waltz\Acrobat_Osman\acrobat\cartwheel_test 2\Patient 1\Session 1\acrobat.ASF
:FULLY-SPECIFIED
:DEGREES
169
root 5.54393 15.9595 7.79617 -534.072 7.20086 180.868
lowerback 0.143971 0.203358 -6.15788
upperback 2.51332 0.378484 1.45448
thorax 2.47364 0.0641265 4.97468
lowerneck -8.95091 -5.49299 -7.95299
upperneck 10.5107 -6.84398 4.98991
head 5.07392 -3.34067 2.34104
rclavicle 2.34069e-014 -2.88238e-015
rhumerus -47.8847 -12.0903 -53.4913
rradius 18.774
rwrist 16.1805
rhand -17.5425 19.8334
rfingers 7.12502
rthumb 8.71189 -9.96682
lclavicle 2.34069e-014 -2.88238e-015
lhumerus -50.6725 3.76701 70.1365
lradius 17.9827
lwrist 10.0553
lhand -14.9544 52.4809
lfingers 7.12502
lthumb 11.2087 82.1615
rfemur -13.1829 1.58247 21.9918
rtibia 31.7072
rfoot -18.4646 -0.340714
rtoes -10.2581
lfemur -10.5006 0.396421 -25.3311
ltibia 27.1625
lfoot -200.029 188.147
ltoes -1.05547
170
root 5.54289 15.942 7.84337 -534.139 7.60029 180.742
lowerback 0.366886 0.143018 -6.39561
upperback 2.39369 0.280434 1.4068
thorax 2.23714 0.0204954 5.05585
lowerneck -8.49638 -5.34037 -7.75343
upperneck 10.5381 -6.66892 4.81692
head 4.982 -3.2607 2.28113
rclavicle -2.18415e-014 4.87022e-015
rhumerus -46.5836 -10.5352 -55.6627
rradius 19.5984
rwrist 13.931
rhand -17.6691 19.7441
rfingers 7.12502
rthumb 8.58972 -10.0612
lclavicle -2.18415e-014 4.87022e-015
lhumerus -49.9255 3.25206 70.7514
lradius 18.2312
lwrist 10.3187
lhand -15.1318 52.5608
lfingers 7.12502
lthumb 11.0377 82.2506
rfemur -15.0577 1.01606 21.5164
rtibia 34.6971
rfoot -18.1418 1.13895
rtoes -13.4673
lfemur -10.9434 0.697167 -25.6953
ltibia 27.2201
lfoot -199.025 189.771
ltoes -7.69927
171
root 5.54438 15.9271 7.89197 -534.215 8.044 180.414
lowerback 0.510785 0.110195 -6.8357
upperback 2.353 0.230722 1.30356
thorax 2.12217 -0.00681063 5.1959
lowerneck -8.09962 -5.23574 -7.59941
upperneck 10.3236 -6.55406 4.68642
head 4.83237 -3.21074 2.23652
rclavicle -7.62836e-015 -2.16675e-014
rhumerus -45.1082 -8.69063 -58.2988
rradius 20.7241
rwrist 11.3328
rhand -17.5256 19.755
rfingers 7.12502
rthumb 8.72819 -10.0445
lclavicle -7.62836e-015 -2.16675e-014
lhumerus -48.746 2.42757 71.7985
lradius 18.5743
lwrist 11.0369
lhand -15.3265 52.4692
lfingers 7.12502
lthumb 10.8498 82.169
rfemur -17.2198 0.412772 20.7861
rtibia 38.2024
rfoot -17.5506 2.72918
rtoes -17.2428
lfemur -11.2095 0.891932 -26.1615
ltibia 27.1801
lfoot -198.308 190.684
ltoes -11.0042
172
root 5.54813 15.9131 7.94589 -534.297 8.48884 179.969
lowerback 0.592216 0.0744628 -7.4192
upperback 2.39857 0.188316 1.18744
thorax 2.13276 -0.0382216 5.40468
lowerneck -8.02739 -5.1695 -7.59064
upperneck 10.1779 -6.46763 4.66355
head 4.76886 -3.1712 2.23746
rclavicle 2.2736e-014 -1.40143e-014
rhumerus -43.4984 -6.38322 -61.3434
rradius 22.1816
rwrist 8.07635
rhand -17.419 20.1622
rfingers 7.12502
rthumb 8.83106 -9.63303
lclavicle 2.2736e-014 -1.40143e-014
lhumerus -47.2986 1.02767 73.3914
lradius 19.3317
lwrist 12.5582
lhand -15.4366 52.5719
lfingers 7.12502
lthumb 10.7437 82.2772
rfemur -19.5777 -0.127187 19.92
rtibia 42.1626
rfoot -17.1322 3.85042
rtoes -22.4219
lfemur -11.3072 0.984907 -26.6693
ltibia 26.9649
lfoot -198.047 191.095
ltoes -11.3669
173
root 5.55354 15.9016 7.9967 -534.481 8.89485 179.51
lowerback 0.647658 0.0419635 -7.98073
upperback 2.5374 0.160712 1.05265
thorax 2.2544 -0.0671746 5.58181
lowerneck -8.14158 -5.1435 -7.47333
upperneck 10.0653 -6.42033 4.48306
head 4.7405 -3.15438 2.16453
rclavicle 1.49089e-015 -1.88845e-015
rhumerus -41.8894 -4.13707 -64.3668
rradius 23.8535
rwrist 4.7811
rhand -17.3584 20.4827
rfingers 7.12502
rthumb 8.88955 -9.31001
lclavicle 1.49089e-015 -1.88845e-015
lhumerus -45.759 -0.659991 75.0787
lradius 20.6421
lwrist 14.4826
lhand -15.6655 53.0456
lfingers 7.12502
lthumb 10.5228 82.7622
rfemur -21.7835 -0.644953 19.0599
rtibia 46.3748
rfoot -16.2333 4.55762
rtoes -25.3888
lfemur -11.2018 1.19744 -27.1708
ltibia 26.6704
lfoot -197.924 191.283
ltoes -11.1418
174
root 5.56135 15.8944 8.0376 -534.867 9.27641 178.978
lowerback 0.818729 0.046569 -8.54001
upperback 2.67781 0.17649 0.876525
thorax 2.30684 -0.0703937 5.71389
lowerneck -8.03779 -5.14922 -7.31661
upperneck 9.8792 -6.42443 4.23075
head 4.65274 -3.16717 2.06523
rclavicle -4.34841e-015 2.38542e-015
rhumerus -40.4368 -2.40272 -67.0248
rradius 25.545
rwrist 1.7914
rhand -17.3217 20.9121
rfingers 7.12502
rthumb 8.92489 -8.8791
lclavicle -4.34841e-015 2.38542e-015
lhumerus -44.4163 -2.57138 76.7338
lradius 22.4224
lwrist 16.6112
lhand -15.9219 53.5401
lfingers 7.12502
lthumb 10.2755 83.2691
rfemur -23.6358 -1.11338 18.1036
rtibia 50.7135
rfoot -15.9687 4.97568
rtoes -28.0468
lfemur -10.7837 1.44439 -27.7332
ltibia 26.2211
lfoot -197.703 191.377
ltoes -10.6485
175
root 5.57131 15.8928 8.07052 -535.356 9.58437 178.432
lowerback 1.13994 0.0301082 -9.05322
upperback 2.69591 0.13975 0.679213
thorax 2.15528 -0.0865039 5.79569
lowerneck -7.67477 -5.13342 -7.32128
upperneck 9.82757 -6.40511 4.08498
head 4.57092 -3.16851 2.03174
rclavicle -5.31749e-015 1.15295e-014
rhumerus -39.2161 -0.955912 -69.4741
rradius 27.1782
rwrist -1.16075
rhand -17.5609 21.8376
rfingers 7.12502
rthumb 8.69408 -7.96334
lclavicle -5.31749e-015 1.15295e-014
lhumerus -43.351 -4.33276 78.1302
lradius 24.4793
lwrist 18.6057
lhand -16.1277 53.6638
lfingers 7.12502
lthumb 10.077 83.4025
rfemur -25.1816 -1.53306 17.0998
rtibia 54.9742
rfoot -15.7464 5.33764
rtoes -29.3334
lfemur -10.1615 1.55207 -28.2683
ltibia 25.6108
lfoot -197.339 191.427
ltoes -10.0725
176
root 5.58279 15.8952 8.09711 -535.828 9.74994 178.054
lowerback 1.45128 -0.034008 -9.34454
upperback 2.66523 0.030134 0.524323
thorax 1.96899 -0.132512 5.79635
lowerneck -7.30804 -5.12333 -7.35382
upperneck 9.89988 -6.37727 3.8383
head 4.52405 -3.17085 1.97138
rclavicle -3.50358e-014 -2.0276e-014
rhumerus -38.2011 0.136995 -71.7045
rradius 28.9476
rwrist -3.59832
rhand -17.7388 22.3396
rfingers 7.12502
rthumb 8.52242 -7.46842
lclavicle -3.50358e-014 -2.0276e-014
lhumerus -42.2131 -5.77329 79.2702
lradius 26.6737
lwrist 20.4175
lhand -16.0857 54.7525
lfingers 7.12502
lthumb 10.1175 84.4893
rfemur -26.4566 -1.95503 16.2728
rtibia 58.9483
rfoot -15.4232 5.28894
rtoes -29.5881
lfemur -9.42358 1.56753 -28.6089
ltibia 24.9342
lfoot -196.924 191.468
ltoes -10.0415
177
root 5.59464 15.9076 8.11537 -536.206 9.77471 177.997
lowerback 1.64333 -0.0936517 -9.28457
upperback 2.62539 -0.0703393 0.48913
thorax 1.8352 -0.173192 5.72523
lowerneck -7.05164 -5.16376 -7.42331
upperneck 10.168 -6.39759 3.54115
head 4.55834 -3.19864 1.89363
rclavicle -2.50966e-015 2.38542e-015
rhumerus -37.4135 0.664008 -73.5518
rradius 30.8739
rwrist -5.04955
rhand -17.7155 21.9913
rfingers 7.12502
rthumb 8.5449 -7.81583
lclavicle -2.50966e-015 2.38542e-015
lhumerus -40.9394 -7.10365 80.3948
lradius 28.9358
lwrist 22.3393
lhand -16.4121 55.6297
lfingers 7.12502
lthumb 9.80256 85.3815
rfemur -27.4351 -2.33588 15.7802
rtibia 62.4197
rfoot -15.0402 4.97929
rtoes -29.0074
lfemur -8.57512 1.32191 -28.6026
ltibia 24.0872
lfoot -196.492 191.501
ltoes -9.24041
178
root 5.60788 15.9366 8.1242 -536.426 9.77105 178.238
lowerback 1.66906 -0.132575 -8.97603
upperback 2.55864 -0.135218 0.580893
thorax 1.75784 -0.198101 5.64731
lowerneck -6.913 -5.21018 -7.5525
upperneck 10.6463 -6.4163 3.32749
head 4.68172 -3.22145 1.84643
rclavicle -3.98812e-014 1.31198e-014
rhumerus -36.7761 1.21175 -75.2891
rradius 32.8779
rwrist -6.43441
rhand -17.5906 21.6332
rfingers 7.12502
rthumb 8.66543 -8.1689
lclavicle -3.98812e-014 1.31198e-014
lhumerus -39.635 -8.26912 81.4922
lradius 31.1765
lwrist 24.4701
lhand -17.3528 55.1774
lfingers 7.12502
lthumb 8.89495 84.9699
rfemur -28.2116 -2.51255 15.617
rtibia 65.3196
rfoot -14.6812 4.58473
rtoes -28.3057
lfemur -7.8452 0.867456 -28.2515
ltibia 23.2354
lfoot -196.185 191.436
ltoes -6.62563
179
root 5.62218 15.9882 8.1269 -536.546 9.78332 178.528
lowerback 1.58302 -0.166982 -8.67884
upperback 2.46623 -0.187407 0.721832
thorax 1.71468 -0.219616 5.62712
lowerneck -6.71863 -5.20975 -7.67148
upperneck 11.0222 -6.3807 3.15991
head 4.76256 -3.21509 1.81804
rclavicle 1.3418e-015 -1.43125e-014
rhumerus -36.2773 2.20215 -77.0934
rradius 34.9107
rwrist -8.12113
rhand -17.4457 21.4886
rfingers 7.12502
rthumb 8.80524 -8.30769
lclavicle 1.3418e-015 -1.43125e-014
lhumerus -38.3237 -9.22349 82.5531
lradius 33.3692
lwrist 26.5942
lhand -17.5509 55.8242
lfingers 7.12502
lthumb 8.70377 85.6248
rfemur -28.7382 -2.52285 15.5264
rtibia 67.5684
rfoot -14.2957 4.09104
rtoes -28.2461
lfemur -7.3642 0.527236 -27.8487
ltibia 22.5689
lfoot -195.849 191.492
ltoes -5.12233
180
root 5.63826 16.008 8.13149 -536.65 9.72597 178.706
lowerback 1.4698 -0.223313 -8.47224
upperback 2.35019 -0.266986 0.834731
thorax 1.66758 -0.25517 5.62841
lowerneck -6.50379 -5.19105 -7.76735
upperneck 11.3439 -6.32698 3.01871
head 4.82239 -3.19754 1.79649
rclavicle -6.36111e-015 -1.17283e-014
rhumerus -35.9713 3.59395 -78.9533
rradius 36.826
rwrist -9.68984
rhand -17.5361 21.8238
rfingers 7.12502
rthumb 8.71803 -7.97613
lclavicle -6.36111e-015 -1.17283e-014
lhumerus -37.1059 -10.0365 83.5882
lradius 35.7968
lwrist 28.6033
lhand -17.2914 56.3468
lfingers 7.12502
lthumb 8.95417 86.1368
rfemur -29.1417 -2.5446 15.296
rtibia 69.3318
rfoot -13.8757 3.67933
rtoes -27.8944
lfemur -7.05712 0.274448 -27.6084
ltibia 22.0475
lfoot -195.234 191.785
ltoes -6.27644
181
root 5.65623 16.0021 8.13456 -536.771 9.59056 178.786
lowerback 1.37219 -0.286442 -8.3467
upperback 2.21638 -0.356853 0.91526
thorax 1.59571 -0.294993 5.64149
lowerneck -6.3347 -5.21807 -7.82862
upperneck 11.7758 -6.33332 2.89158
head 4.92665 -3.20631 1.76752
rclavicle 1.20513e-015 -2.78299e-015
rhumerus -35.8275 5.27242 -80.7774
rradius 38.5628
rwrist -10.9773
rhand -17.6722 22.5237
rfingers 7.12502
rthumb 8.58668 -7.28173
lclavicle 1.20513e-015 -2.78299e-015
lhumerus -36.1704 -11.0521 84.7248
lradius 38.6607
lwrist 30.9963
lhand -16.8887 57.0592
lfingers 7.12502
lthumb 9.34272 86.8322
rfemur -29.3436 -2.5531 14.9353
rtibia 70.5185
rfoot -13.5822 3.37344
rtoes -27.2941
lfemur -6.75794 -0.0321089 -27.4985
ltibia 21.6208
lfoot -194.594 192.132
ltoes -8.12869
182
root 5.67543 16.0205 8.13091 -536.852 9.43923 178.899
lowerback 1.25719 -0.314572 -8.22702
upperback 2.0704 -0.399498 1.01637
thorax 1.51374 -0.310899 5.67947
lowerneck -6.1532 -5.26981 -7.84942
upperneck 12.2029 -6.37925 2.78699
head 5.02896 -3.23103 1.73672
rclavicle -3.64024e-014 -5.26779e-015
rhumerus -35.811 6.96506 -82.3563
rradius 40.2194
rwrist -11.7675
rhand -17.4369 22.7719
rfingers 7.12502
rthumb 8.81377 -7.02402
lclavicle -3.64024e-014 -5.26779e-015
lhumerus -35.3773 -12.0572 85.9046
lradius 41.6093
lwrist 33.1947
lhand -16.1741 57.3096
lfingers 7.12502
lthumb 10.0322 87.0505
rfemur -29.1713 -2.42236 14.6177
rtibia 70.8405
rfoot -13.45 3.05556
rtoes -27.5654
lfemur -6.46767 -0.513316 -27.324
ltibia 21.345
lfoot -194.34 192.388
ltoes -7.83078
183
root 5.69688 16.0369 8.1254 -536.858 9.33444 179.125
lowerback 1.07615 -0.286339 -7.99583
upperback 1.93376 -0.360644 1.12962
thorax 1.46445 -0.286233 5.66675
lowerneck -6.02097 -5.31146 -7.75727
upperneck 12.6011 -6.42146 2.68445
head 5.12642 -3.24854 1.68794
rclavicle -5.18083e-015 -2.6339e-015
rhumerus -35.8209 8.39044 -83.6304
rradius 41.6963
rwrist -11.9124
rhand -16.4613 22.8957
rfingers 7.12502
rthumb 9.75515 -6.85838
lclavicle -5.18083e-015 -2.6339e-015
lhumerus -34.5357 -12.9723 86.9803
lradius 44.5606
lwrist 34.1643
lhand -15.7708 55.1731
lfingers 7.12502
lthumb 10.4213 84.8948
rfemur -28.751 -2.06809 14.4336
rtibia 70.3469
rfoot -13.4317 2.68427
rtoes -27.701
lfemur -6.24556 -1.07179 -27.0183
ltibia 21.1482
lfoot -194.239 192.68
ltoes -6.70962
